<svg xmlns="http://www.w3.org/2000/svg" width="880" height="560" viewBox="0 0 880 560">
  <rect width="880" height="560" fill="#ffffff"/>
  <text x="44" y="52" font-family="sans-serif" font-size="24" fill="#334155">얼굴 측면 템플릿</text>
  <path d="M250 140 C220 180, 210 220, 222 266 C230 296, 252 320, 275 335 C290 345, 312 352, 330 350 C350 348, 364 338, 375 320 C385 304, 396 302, 412 302 C436 302, 447 290, 447 271 C447 252, 433 241, 414 241 C398 241, 389 232, 381 216 C371 194, 359 168, 332 153 C309 141, 278 135, 250 140 Z" fill="none" stroke="#94a3b8" stroke-width="4"/>
  <line x1="205" y1="420" x2="675" y2="420" stroke="#e2e8f0" stroke-width="2"/>
</svg>
